<?xml version="1.0" encoding="utf-8"?>
<!-- Generator: Adobe Illustrator 24.3.0, SVG Export Plug-In . SVG Version: 6.00 Build 0)  -->
<svg version="1.1" xmlns="http://www.w3.org/2000/svg" xmlns:xlink="http://www.w3.org/1999/xlink" x="0px" y="0px"
	 viewBox="0 0 566.93 439.72" style="enable-background:new 0 0 566.93 439.72;" xml:space="preserve">
<style type="text/css">
	.st0{fill:#FFFFFF;}
</style>
<g id="Ebene_1">
</g>
<g id="Ebene_2">
	<g>
		<path class="st0" d="M0,398.92c0-22.17,17.71-40.68,40-40.68c13.37,0,25.02,6.4,32.11,16.34l-12.11,8.8
			c-4.46-6.29-11.08-10.17-19.43-10.17c-14.28,0-24.68,11.66-24.68,25.71c0,14.06,10.28,25.83,24.57,25.83
			c8.46,0,15.09-3.89,19.54-10.17l12.11,8.8c-7.08,9.94-18.74,16.34-32.11,16.34C17.71,439.72,0,421.32,0,398.92z"/>
		<path class="st0" d="M78.98,399.04c0-22.4,17.6-40.8,40-40.8c22.28,0,40.11,18.4,40.11,40.8c0,22.28-17.82,40.68-40.11,40.68
			C96.58,439.72,78.98,421.32,78.98,399.04z M143.09,399.04c0-14.17-10.05-25.83-24.11-25.83c-14.17,0-24.11,11.66-24.11,25.83
			s9.94,25.71,24.11,25.71C133.04,424.75,143.09,413.21,143.09,399.04z"/>
		<path class="st0" d="M168.71,399.04c0-22.4,17.6-40.8,40.22-40.8c11.89,0,22.28,4.91,29.14,12.57l-11.54,9.94
			c-4.46-4.8-10.74-7.77-17.6-7.77c-13.71,0-24.34,11.99-24.34,26.05s10.4,26.4,24.8,26.4c10.28,0,20.45-6.17,20.45-15.31h-22.28
			v-12.91h39.65c0,29.14-16.11,42.51-37.48,42.51C185.97,439.72,168.71,421.32,168.71,399.04z"/>
		<path class="st0" d="M303.01,359.61h15.88v78.73h-14.28l-28.57-49.36v49.36h-15.88v-78.73h14.74l28.11,48.79V359.61z"/>
		<path class="st0" d="M338.11,438.35v-78.73h15.88v78.73H338.11z"/>
		<path class="st0" d="M425.19,359.61v14.06h-21.71v64.68H387.6v-64.68h-21.71v-14.06H425.19z"/>
		<path class="st0" d="M436.3,410.58v-50.97h15.88v49.94c0,10.74,6.86,15.08,14.17,15.08c7.43,0,14.28-4.34,14.28-15.08v-49.94
			h15.88v50.97c0,18.05-14.06,29.14-30.17,29.14C450.35,439.72,436.3,428.64,436.3,410.58z"/>
		<path class="st0" d="M510.36,415.5h15.88c0.12,5.6,5.6,10.28,12.91,10.28c7.08,0,11.77-3.89,11.77-9.49c0-4.34-3.2-7.42-9.94-9.48
			l-9.6-2.75c-17.26-4.56-20.34-14.97-20.34-22.05c0-14.06,12.11-23.77,27.19-23.77c14.86,0,26.28,9.03,26.28,24h-15.88
			c0-5.6-3.89-9.94-10.74-9.94c-6.17,0-10.85,4.11-10.85,9.37c0,1.94,0.57,5.94,8.8,8.34l8.8,2.52c11.88,3.54,22.28,9.6,22.28,22.97
			c0,15.65-13.37,24.22-28.23,24.22C521.9,439.72,510.36,429.32,510.36,415.5z"/>
	</g>
	<path class="st0" d="M481.94,7.25c-3.32-6.53-11.34-9.13-17.85-5.81c-6.53,3.32-9.13,11.33-5.81,17.85
		c0.43,0.85,0.96,1.63,1.55,2.35L381.83,123.6L345.7,95.75c-0.61-0.47-1.37-0.67-2.15-0.58c-0.76,0.1-1.46,0.5-1.92,1.11
		c-0.82,1.07-82.04,106.92-92.67,120.3c-10.64,13.39-18.5,15.74-31.07,15.74c-21.65,0-38.6-17.89-38.6-40.72
		c0-22.73,17.04-40.54,38.79-40.54c12.51,0,23.05,5.52,30.46,15.96c0.53,0.75,1.39,1.2,2.31,1.22c0.86-0.09,1.8-0.41,2.36-1.14
		l15.82-20.63c0.85-1.11,0.79-2.67-0.15-3.71c-13.03-14.49-31.89-22.79-51.75-22.79c-38.86,0-70.47,32.13-70.47,71.62
		c0,17.61,6.28,34.41,17.73,47.59L104.28,317c-0.98,1.27-0.75,3.09,0.52,4.07l19.28,14.89c0.51,0.4,1.14,0.61,1.77,0.61
		c0.12,0,0.25-0.01,0.37-0.02c0.76-0.1,1.46-0.5,1.93-1.11l60.42-78.21c9.07,4.11,18.66,6.19,28.55,6.19
		c21.94,0,41.99-9.78,55.11-26.85c0.14-0.12,0.27-0.26,0.38-0.42c0.11-0.14,0.2-0.29,0.27-0.44l75.94-98.47l37.27,28.62
		c1.27,0.98,3.09,0.74,4.07-0.53l77.07-99.95l0.12,29.46l-76.32,99.46l-36.64-28.26c-0.61-0.47-1.37-0.69-2.14-0.58
		c-0.76,0.1-1.46,0.5-1.93,1.11l-59.22,76.77c-2.56-1.05-5.44-1.36-8.3-0.61c-3.43,0.88-6.32,3.05-8.12,6.11
		c-1.8,3.05-2.31,6.63-1.43,10.06c1.54,5.98,6.95,9.97,12.86,9.97c1.09,0,2.2-0.14,3.3-0.42c3.43-0.88,6.32-3.05,8.12-6.11
		c1.8-3.05,2.31-6.63,1.43-10.06c-0.56-2.18-1.68-4.05-3.1-5.6l57.3-74.27l36.64,28.27c0.61,0.47,1.39,0.69,2.14,0.58
		c0.76-0.1,1.46-0.5,1.93-1.11l78.69-102.55c0.39-0.51,0.6-1.13,0.6-1.78L473,56.9c-0.01-1.24-0.8-2.34-1.97-2.74
		c-1.17-0.39-2.46-0.01-3.23,0.98L387.34,159.5l-37.27-28.62c-1.27-0.98-3.09-0.73-4.07,0.53l-78.03,101.17
		c-0.01,0.01-0.02,0.02-0.03,0.03c-12.01,15.89-30.53,25-50.83,25c-9.77,0-19.24-2.22-28.13-6.61c-1.23-0.61-2.73-0.27-3.58,0.83
		l-60.07,77.77l-14.69-11.35l59.81-77.43c0.87-1.12,0.8-2.71-0.17-3.75c-11.5-12.36-17.83-28.5-17.83-45.47
		c0-36.29,29.01-65.82,64.66-65.82c17.39,0,33.95,6.94,45.79,19.12l-12.02,15.69c-8.31-9.91-19.83-15.32-32.81-15.32
		c-25.01,0-44.59,20.35-44.59,46.34c0,26.09,19.5,46.53,44.41,46.53c16.16,0,24.82-4.36,35.61-17.94
		c9.77-12.3,78.94-102.41,90.96-118.07l36.14,27.84c0.61,0.47,1.37,0.68,2.15,0.58c0.76-0.1,1.46-0.5,1.92-1.11L464.4,25.2
		c0.52,0.25,1.03,0.51,1.59,0.7c1.35,0.44,2.74,0.66,4.13,0.66c2.06,0,4.11-0.48,6-1.45C482.64,21.79,485.25,13.78,481.94,7.25z
		 M286.1,263.21c-4.18,0-7.56-3.39-7.56-7.56c0-4.18,3.39-7.56,7.56-7.56c4.18,0,7.56,3.39,7.56,7.56
		C293.66,259.82,290.27,263.21,286.1,263.21z M477.21,15.59c-0.62,1.9-1.94,3.44-3.72,4.35c-1.78,0.91-3.81,1.07-5.7,0.44
		c-1.9-0.62-3.44-1.94-4.34-3.71c-1.87-3.67-0.4-8.18,3.27-10.05c1.08-0.55,2.24-0.81,3.38-0.81c2.73,0,5.35,1.49,6.67,4.08
		C477.67,11.67,477.83,13.69,477.21,15.59z"/>
</g>
</svg>
