<?xml version="1.0" encoding="utf-8"?>
<!-- Generator: Adobe Illustrator 24.3.0, SVG Export Plug-In . SVG Version: 6.00 Build 0)  -->
<svg version="1.1" xmlns="http://www.w3.org/2000/svg" xmlns:xlink="http://www.w3.org/1999/xlink" x="0px" y="0px"
	 viewBox="0 0 384.31 340.66" style="enable-background:new 0 0 384.31 340.66;" xml:space="preserve">
<style type="text/css">
	.st0{fill:url(#SVGID_1_);}
</style>
<g id="Ebene_1">
	<linearGradient id="SVGID_1_" gradientUnits="userSpaceOnUse" x1="0" y1="170.3291" x2="384.3144" y2="170.3291">
		<stop  offset="5.267311e-03" style="stop-color:#5B9299"/>
		<stop  offset="0.1421" style="stop-color:#628E92"/>
		<stop  offset="0.3381" style="stop-color:#758180"/>
		<stop  offset="0.5698" style="stop-color:#946D62"/>
		<stop  offset="0.8268" style="stop-color:#BE5038"/>
		<stop  offset="0.9974" style="stop-color:#DF3B18"/>
	</linearGradient>
	<path class="st0" d="M382.86,7.34c-3.36-6.61-11.47-9.24-18.07-5.88c-6.6,3.36-9.24,11.47-5.88,18.07
		c0.44,0.86,0.97,1.65,1.57,2.38L281.54,125.1l-36.58-28.18c-0.62-0.48-1.39-0.68-2.17-0.59c-0.77,0.1-1.47,0.5-1.95,1.12
		c-0.83,1.08-83.04,108.22-93.79,121.76c-10.77,13.55-18.72,15.94-31.45,15.94c-21.91,0-39.07-18.1-39.07-41.22
		c0-23.01,17.25-41.03,39.26-41.03c12.67,0,23.33,5.58,30.83,16.15c0.54,0.76,1.41,1.22,2.34,1.24c0.87-0.09,1.82-0.41,2.39-1.15
		l16.01-20.88c0.86-1.12,0.8-2.7-0.15-3.75c-13.19-14.66-32.28-23.07-52.38-23.07c-39.33,0-71.32,32.52-71.32,72.49
		c0,17.82,6.35,34.83,17.95,48.17L0.61,320.85c-0.99,1.28-0.76,3.13,0.53,4.12l19.52,15.08c0.52,0.4,1.15,0.61,1.8,0.61
		c0.12,0,0.25-0.01,0.37-0.02c0.77-0.1,1.47-0.5,1.95-1.12l61.15-79.16c9.18,4.16,18.89,6.27,28.89,6.27
		c22.2,0,42.5-9.9,55.78-27.18c0.14-0.13,0.27-0.27,0.39-0.42c0.11-0.14,0.2-0.29,0.28-0.44l76.86-99.66l37.73,28.97
		c1.29,1,3.13,0.75,4.12-0.54l78.01-101.17L368.1,96l-77.24,100.67l-37.09-28.61c-0.61-0.48-1.39-0.69-2.17-0.59
		c-0.77,0.1-1.47,0.5-1.95,1.12l-59.94,77.7c-2.59-1.06-5.5-1.37-8.41-0.62c-3.48,0.89-6.4,3.09-8.22,6.18
		c-1.83,3.09-2.34,6.71-1.45,10.18c1.56,6.06,7.03,10.09,13.02,10.09c1.1,0,2.23-0.14,3.34-0.42c3.48-0.89,6.4-3.09,8.22-6.18
		c1.83-3.09,2.34-6.71,1.45-10.18c-0.57-2.2-1.7-4.1-3.14-5.67l57.99-75.17l37.09,28.61c0.62,0.48,1.4,0.7,2.17,0.59
		c0.77-0.1,1.48-0.5,1.95-1.12l79.65-103.8c0.4-0.52,0.61-1.15,0.61-1.8l-0.16-39.39c-0.01-1.26-0.81-2.37-2-2.77
		c-1.19-0.39-2.49-0.01-3.27,0.99l-81.44,105.63l-37.73-28.96c-1.29-0.99-3.12-0.74-4.12,0.54l-78.98,102.4
		c-0.01,0.01-0.02,0.02-0.03,0.03c-12.15,16.08-30.91,25.31-51.44,25.31c-9.89,0-19.47-2.25-28.47-6.69
		c-1.25-0.61-2.76-0.27-3.62,0.84l-60.8,78.71L7.05,322.12l60.53-78.37c0.88-1.14,0.81-2.74-0.17-3.8
		c-11.64-12.51-18.05-28.85-18.05-46.02c0-36.74,29.36-66.62,65.45-66.62c17.61,0,34.36,7.02,46.35,19.35L149,162.54
		c-8.41-10.03-20.07-15.51-33.21-15.51c-25.31,0-45.14,20.6-45.14,46.9c0,26.41,19.74,47.09,44.95,47.09
		c16.36,0,25.12-4.41,36.05-18.16c9.89-12.45,79.9-103.66,92.06-119.5l36.58,28.18c0.62,0.48,1.39,0.69,2.17,0.59
		c0.77-0.1,1.47-0.5,1.95-1.12l80.7-105.5c0.53,0.25,1.05,0.52,1.61,0.7c1.37,0.44,2.78,0.67,4.18,0.67c2.09,0,4.16-0.49,6.08-1.47
		C383.57,22.05,386.21,13.95,382.86,7.34z M184.64,266.41c-4.23,0-7.65-3.43-7.65-7.65c0-4.23,3.43-7.65,7.65-7.65
		s7.65,3.43,7.65,7.65C192.29,262.98,188.87,266.41,184.64,266.41z M378.07,15.78c-0.63,1.92-1.96,3.48-3.76,4.4
		c-1.8,0.92-3.85,1.08-5.77,0.45c-1.92-0.63-3.48-1.96-4.4-3.76c-1.89-3.72-0.41-8.28,3.31-10.17c1.1-0.56,2.27-0.82,3.42-0.82
		c2.76,0,5.42,1.51,6.75,4.13C378.54,11.81,378.7,13.86,378.07,15.78z"/>
</g>
<g id="Ebene_2">
</g>
</svg>
