<?xml version="1.0" encoding="utf-8"?>
<!-- Generator: Adobe Illustrator 24.0.0, SVG Export Plug-In . SVG Version: 6.00 Build 0)  -->
<svg version="1.1" id="Layer_1" xmlns="http://www.w3.org/2000/svg" xmlns:xlink="http://www.w3.org/1999/xlink" x="0px" y="0px"
	 viewBox="0 0 412.16 170.93" style="enable-background:new 0 0 412.16 170.93;" xml:space="preserve">
<style type="text/css">
	.st0{fill:#E6320F;}
</style>
<g>
	<path d="M356.82,158.84c0,0,0.98,0.96,2.14,0.96c1.37,0,2.23-0.62,2.88-2.23c0.26-0.65,5.78-14.52,5.78-14.52h-1.3l-3.82,9.82
		l-4.75-9.82h-1.34l5.45,11.14l-1.13,2.86c-0.43,1.08-0.86,1.54-1.68,1.54c-0.84,0-1.49-0.74-1.49-0.74L356.82,158.84z
		 M351.66,150.51c0,0-1.13,2.54-3.96,2.54c-2.45,0-4.13-1.99-4.13-4.54c0-2.54,1.68-4.54,4.13-4.54c2.83,0,3.96,2.54,3.96,2.54
		V150.51z M351.78,143.05v2.02c0,0-1.2-2.3-4.08-2.3c-3.02,0-5.42,2.35-5.42,5.76c0,3.41,2.4,5.76,5.42,5.76
		c2.42,0,3.6-1.61,3.96-2.11v2.14c0,2.45-1.3,4.27-4.1,4.27c-2.78,0-4.18-1.9-4.18-1.9l-0.84,0.89c0,0,1.8,2.23,5.02,2.23
		c3.19,0,5.35-2.11,5.35-5.54v-11.21H351.78z M333.67,153.05c-2.74,0-4.27-2.06-4.27-4.54s1.54-4.54,4.27-4.54
		c2.74,0,4.27,2.06,4.27,4.54S336.4,153.05,333.67,153.05 M333.67,142.76c-3.26,0-5.57,2.59-5.57,5.76s2.3,5.76,5.57,5.76
		c3.26,0,5.57-2.59,5.57-5.76S336.93,142.76,333.67,142.76 M322.48,153.99h1.25v-18.14h-1.2L322.48,153.99z M312.55,153.05
		c-2.74,0-4.27-2.06-4.27-4.54s1.54-4.54,4.27-4.54c2.74,0,4.27,2.06,4.27,4.54S315.28,153.05,312.55,153.05 M312.55,142.76
		c-3.26,0-5.57,2.59-5.57,5.76s2.3,5.76,5.57,5.76c3.26,0,5.57-2.59,5.57-5.76S315.81,142.76,312.55,142.76 M298.89,142.76
		c-2.69,0-3.74,2.28-3.74,2.28v-1.99h-1.13v10.94h1.25v-7.56c0,0,0.96-2.45,3.38-2.45c1.78,0,3.1,0.96,3.1,3.22v6.79h1.25v-6.98
		C302.99,144.03,300.93,142.76,298.89,142.76 M281.37,144.85v-9h-1.25v18.14h1.25v-7.56c0,0,0.96-2.45,3.38-2.45
		c1.78,0,3.1,0.96,3.1,3.22v6.79h1.25v-6.98c0-2.98-2.06-4.25-4.1-4.25C282.43,142.76,281.37,144.85,281.37,144.85 M271.51,153.05
		c-2.62,0-4.34-2.11-4.34-4.54c0-2.42,1.73-4.54,4.34-4.54c2.3,0,3.48,1.63,3.48,1.63l0.89-0.79c0,0-1.51-2.06-4.37-2.06
		c-3.26,0-5.64,2.59-5.64,5.76s2.38,5.76,5.64,5.76c2.98,0,4.49-2.23,4.49-2.23l-0.86-0.82
		C275.13,151.23,273.93,153.05,271.51,153.05 M253.41,147.87c0.05-1.2,1.06-3.89,4.1-3.89c2.88,0,3.96,2.64,4.01,3.89H253.41z
		 M257.51,142.76c-3.26,0-5.4,2.66-5.4,5.76c0,3.12,2.35,5.76,5.62,5.76c1.8,0,3.53-0.96,4.58-2.23l-0.84-0.86
		c-0.74,0.94-2.06,1.87-3.74,1.87c-2.9,0-4.27-2.38-4.37-4.03h9.43c0.02-0.26,0.02-0.29,0.02-0.5
		C262.82,145.16,260.42,142.76,257.51,142.76 M244.82,153.99h1.25v-15.65h5.06v-1.15h-11.38v1.15h5.06V153.99z M226.7,150.51
		c0,0-1.2,2.54-3.94,2.54c-2.45,0-4.15-1.99-4.15-4.54c0-2.54,1.7-4.54,4.15-4.54c2.76,0,3.94,2.54,3.94,2.54V150.51z
		 M227.95,153.99v-18.14h-1.22v9.05c-0.29-0.43-1.56-2.14-3.96-2.14c-3.05,0-5.45,2.35-5.45,5.76c0,3.41,2.4,5.76,5.45,5.76
		c2.78,0,4.06-2.3,4.06-2.3v2.02H227.95z M209.23,142.76c-2.69,0-3.74,2.28-3.74,2.28v-1.99h-1.13v10.94h1.25v-7.56
		c0,0,0.96-2.45,3.38-2.45c1.78,0,3.1,0.96,3.1,3.22v6.79h1.25v-6.98C213.33,144.03,211.27,142.76,209.23,142.76 M194.47,153.05
		c-1.42,0-2.98-0.74-2.98-2.47s1.78-2.5,3.22-2.5c2.18,0,3.48,0.91,3.48,0.91v1.85C198.19,150.85,196.87,153.05,194.47,153.05
		 M194.95,142.76c-2.3,0-4.1,1.15-4.1,1.15l0.55,1.08c0,0,1.58-1.01,3.58-1.01c1.2,0,3.22,0.46,3.22,3.12v0.82
		c0,0-1.42-1.03-3.65-1.03c-2.14,0-4.34,1.3-4.34,3.7c0,2.42,2.14,3.7,3.98,3.7c2.69,0,4.13-2.18,4.13-2.18v1.9h1.13v-7.18
		C199.43,144.58,197.99,142.76,194.95,142.76 M173.97,142.76c-2.69,0-3.74,2.28-3.74,2.28v-1.99h-1.13v10.94h1.25v-7.56
		c0,0,0.96-2.45,3.38-2.45c1.78,0,3.1,0.96,3.1,3.22v6.79h1.25v-6.98C178.07,144.03,176.01,142.76,173.97,142.76 M159.55,153.05
		c-2.74,0-4.27-2.06-4.27-4.54s1.54-4.54,4.27-4.54c2.74,0,4.27,2.06,4.27,4.54S162.28,153.05,159.55,153.05 M159.55,142.76
		c-3.26,0-5.57,2.59-5.57,5.76s2.3,5.76,5.57,5.76c3.26,0,5.57-2.59,5.57-5.76S162.81,142.76,159.55,142.76 M148.1,139.49
		c0,0.53,0.43,0.96,0.96,0.96s0.96-0.43,0.96-0.96s-0.43-0.96-0.96-0.96S148.1,138.97,148.1,139.49 M148.43,153.99h1.25v-10.94
		h-1.25V153.99z M136.55,144.2h2.38v6.84c0,1.8,0.98,3.24,3.12,3.24c1.1,0,2.16-0.65,2.16-0.65l-0.48-1.08c0,0-0.77,0.5-1.63,0.5
		c-1.49,0-1.92-1.03-1.92-2.26v-6.6h3.72v-1.15h-3.72v-3.53h-1.25v3.53h-2.38V144.2z M127.72,153.05c-1.42,0-2.98-0.74-2.98-2.47
		s1.78-2.5,3.22-2.5c2.18,0,3.48,0.91,3.48,0.91v1.85C131.44,150.85,130.12,153.05,127.72,153.05 M128.2,142.76
		c-2.3,0-4.1,1.15-4.1,1.15l0.55,1.08c0,0,1.58-1.01,3.58-1.01c1.2,0,3.22,0.46,3.22,3.12v0.82c0,0-1.42-1.03-3.65-1.03
		c-2.14,0-4.34,1.3-4.34,3.7c0,2.42,2.14,3.7,3.98,3.7c2.69,0,4.13-2.18,4.13-2.18v1.9h1.13v-7.18
		C132.69,144.58,131.25,142.76,128.2,142.76 M109.75,143.05l5.47,11.42l5.47-11.42h-1.3l-4.15,8.81l-4.15-8.81H109.75z
		 M102.14,153.05c-2.74,0-4.27-2.06-4.27-4.54s1.54-4.54,4.27-4.54s4.27,2.06,4.27,4.54S104.88,153.05,102.14,153.05 M102.14,142.76
		c-3.26,0-5.57,2.59-5.57,5.76s2.3,5.76,5.57,5.76s5.57-2.59,5.57-5.76S105.4,142.76,102.14,142.76 M88.48,142.76
		c-2.69,0-3.74,2.28-3.74,2.28v-1.99h-1.13v10.94h1.25v-7.56c0,0,0.96-2.45,3.38-2.45c1.78,0,3.1,0.96,3.1,3.22v6.79h1.25v-6.98
		C92.59,144.03,90.52,142.76,88.48,142.76 M74.59,142.76c-2.69,0-3.74,2.28-3.74,2.28v-1.99h-1.13v10.94h1.25v-7.56
		c0,0,0.96-2.45,3.38-2.45c1.78,0,3.1,0.96,3.1,3.22v6.79h1.25v-6.98C78.69,144.03,76.63,142.76,74.59,142.76 M62.85,153.99h1.25
		v-16.8h-1.25V153.99z"/>
	<path d="M245.78,127.52l1.1,0.38l2.04-5.62l-1.15-0.41L245.78,127.52z M234.07,128.84c0,0,0.98,0.96,2.14,0.96
		c1.37,0,2.23-0.62,2.88-2.23c0.26-0.65,5.78-14.52,5.78-14.52h-1.3l-3.82,9.82l-4.75-9.82h-1.34l5.45,11.14l-1.13,2.86
		c-0.43,1.08-0.86,1.54-1.68,1.54c-0.84,0-1.49-0.74-1.49-0.74L234.07,128.84z M223.51,114.2h2.38v6.84c0,1.8,0.98,3.24,3.12,3.24
		c1.1,0,2.16-0.65,2.16-0.65l-0.48-1.08c0,0-0.77,0.5-1.63,0.5c-1.49,0-1.92-1.03-1.92-2.26v-6.6h3.72v-1.15h-3.72v-3.53h-1.25v3.53
		h-2.38V114.2z M217.75,109.49c0,0.53,0.43,0.96,0.96,0.96s0.96-0.43,0.96-0.96s-0.43-0.96-0.96-0.96S217.75,108.97,217.75,109.49
		 M218.08,123.99h1.25v-10.94h-1.25V123.99z M211.22,123.99h1.25v-18.14h-1.2L211.22,123.99z M204.02,109.49
		c0,0.53,0.43,0.96,0.96,0.96s0.96-0.43,0.96-0.96s-0.43-0.96-0.96-0.96S204.02,108.97,204.02,109.49 M204.35,123.99h1.25v-10.94
		h-1.25V123.99z M190.68,116.31c0,0,1.1-2.33,3.94-2.33c2.45,0,4.15,1.99,4.15,4.54c0,2.54-1.7,4.54-4.15,4.54
		c-2.83,0-3.94-2.33-3.94-2.33V116.31z M190.56,123.99v-1.85c0,0,1.18,2.14,4.06,2.14c3.05,0,5.45-2.35,5.45-5.76
		c0-3.41-2.4-5.76-5.45-5.76c-2.5,0-3.67,1.58-3.96,2.02v-8.93h-1.22v18.14H190.56z M179.44,123.05c-2.74,0-4.27-2.06-4.27-4.54
		s1.54-4.54,4.27-4.54c2.74,0,4.27,2.06,4.27,4.54S182.18,123.05,179.44,123.05 M179.44,112.76c-3.26,0-5.57,2.59-5.57,5.76
		s2.3,5.76,5.57,5.76c3.26,0,5.57-2.59,5.57-5.76S182.71,112.76,179.44,112.76 M154.32,107.19v16.8h1.22v-14.3l6.38,10.1l6.36-10.13
		v14.33h1.25v-16.8h-1.18l-6.43,10.32l-6.43-10.32H154.32z M138.48,127.52l1.1,0.38l2.04-5.62l-1.15-0.41L138.48,127.52z
		 M126.76,128.84c0,0,0.98,0.96,2.14,0.96c1.37,0,2.23-0.62,2.88-2.23c0.26-0.65,5.78-14.52,5.78-14.52h-1.3l-3.82,9.82l-4.75-9.82
		h-1.34l5.45,11.14l-1.13,2.86c-0.43,1.08-0.86,1.54-1.68,1.54c-0.84,0-1.49-0.74-1.49-0.74L126.76,128.84z M121.6,120.51
		c0,0-1.13,2.54-3.96,2.54c-2.45,0-4.13-1.99-4.13-4.54c0-2.54,1.68-4.54,4.13-4.54c2.83,0,3.96,2.54,3.96,2.54V120.51z
		 M121.72,113.05v2.02c0,0-1.2-2.3-4.08-2.3c-3.02,0-5.42,2.35-5.42,5.76c0,3.41,2.4,5.76,5.42,5.76c2.42,0,3.6-1.61,3.96-2.11v2.14
		c0,2.45-1.3,4.27-4.1,4.27c-2.78,0-4.18-1.9-4.18-1.9l-0.84,0.89c0,0,1.8,2.23,5.02,2.23c3.19,0,5.35-2.11,5.35-5.54v-11.21H121.72
		z M108.48,112.76c-2.26,0-3.19,2.06-3.19,2.06v-1.78h-1.13v10.94h1.25v-7.9c0,0,0.89-2.11,2.78-2.11c1.01,0,1.46,0.26,1.46,0.26
		l0.53-1.2C110.18,113.05,109.51,112.76,108.48,112.76 M90.76,117.87c0.05-1.2,1.06-3.89,4.1-3.89c2.88,0,3.96,2.64,4.01,3.89H90.76
		z M94.87,112.76c-3.26,0-5.4,2.66-5.4,5.76c0,3.12,2.35,5.76,5.62,5.76c1.8,0,3.53-0.96,4.58-2.23l-0.84-0.86
		c-0.74,0.94-2.06,1.87-3.74,1.87c-2.9,0-4.27-2.38-4.37-4.03h9.43c0.02-0.26,0.02-0.29,0.02-0.5
		C100.17,115.16,97.77,112.76,94.87,112.76 M81.38,112.76c-2.69,0-3.74,2.28-3.74,2.28v-1.99h-1.13v10.94h1.25v-7.56
		c0,0,0.96-2.45,3.38-2.45c1.78,0,3.1,0.96,3.1,3.22v6.79h1.25v-6.98C85.48,114.03,83.42,112.76,81.38,112.76 M63.76,108.34h8.06
		v-1.15h-9.31v16.8h9.46v-1.15h-8.21v-6.89h7.49v-1.15h-7.49V108.34z"/>
	<path d="M390.57,97.52l1.1,0.38l2.04-5.62l-1.15-0.41L390.57,97.52z M379.96,84.2h2.38v6.84c0,1.8,0.98,3.24,3.12,3.24
		c1.1,0,2.16-0.65,2.16-0.65l-0.48-1.08c0,0-0.77,0.5-1.63,0.5c-1.49,0-1.92-1.03-1.92-2.26v-6.6h3.72v-1.15h-3.72v-3.53h-1.25v3.53
		h-2.38V84.2z M371.99,82.76c-2.69,0-3.74,2.28-3.74,2.28v-1.99h-1.13v10.94h1.25v-7.56c0,0,0.96-2.45,3.38-2.45
		c1.78,0,3.1,0.96,3.1,3.22v6.79h1.25v-6.98C376.1,84.03,374.03,82.76,371.99,82.76 M353.73,87.87c0.05-1.2,1.06-3.89,4.1-3.89
		c2.88,0,3.96,2.64,4.01,3.89H353.73z M357.83,82.76c-3.26,0-5.4,2.66-5.4,5.76c0,3.12,2.35,5.76,5.62,5.76
		c1.8,0,3.53-0.96,4.58-2.23l-0.84-0.86c-0.74,0.94-2.06,1.87-3.74,1.87c-2.9,0-4.27-2.38-4.37-4.03h9.43
		c0.02-0.26,0.02-0.29,0.02-0.5C363.14,85.16,360.74,82.76,357.83,82.76 M341.63,86.09c0,0,0.84-2.11,2.9-2.11
		c1.66,0,2.66,0.96,2.66,3.19v6.82h1.25v-7.2c0-3.07-1.94-4.03-3.62-4.03c-2.42,0-3.43,1.99-3.5,2.14
		c-0.65-1.54-1.97-2.14-3.31-2.14c-2.45,0-3.41,2.14-3.41,2.14v-1.85h-1.13v10.94h1.25v-7.9c0,0,0.94-2.11,3-2.11
		c1.66,0,2.66,0.96,2.66,3.19v6.82h1.25V86.09z M324.45,82.76c-2.69,0-3.74,2.28-3.74,2.28v-1.99h-1.13v10.94h1.25v-7.56
		c0,0,0.96-2.45,3.38-2.45c1.78,0,3.1,0.96,3.1,3.22v6.79h1.25v-6.98C328.55,84.03,326.49,82.76,324.45,82.76 M310.02,93.05
		c-2.74,0-4.27-2.06-4.27-4.54s1.54-4.54,4.27-4.54c2.74,0,4.27,2.06,4.27,4.54S312.76,93.05,310.02,93.05 M310.02,82.76
		c-3.26,0-5.57,2.59-5.57,5.76s2.3,5.76,5.57,5.76c3.26,0,5.57-2.59,5.57-5.76S313.29,82.76,310.02,82.76 M300.71,82.76
		c-2.26,0-3.19,2.06-3.19,2.06v-1.78h-1.13v10.94h1.25v-7.9c0,0,0.89-2.11,2.78-2.11c1.01,0,1.46,0.26,1.46,0.26l0.53-1.2
		C302.42,83.05,301.74,82.76,300.71,82.76 M289.58,79.49c0,0.53,0.43,0.96,0.96,0.96c0.53,0,0.96-0.43,0.96-0.96
		s-0.43-0.96-0.96-0.96C290.01,78.53,289.58,78.97,289.58,79.49 M289.91,93.99h1.25V83.05h-1.25V93.99z M275.3,83.05l5.47,11.42
		l5.47-11.42h-1.3l-4.15,8.81l-4.15-8.81H275.3z M267.83,82.76c-2.69,0-3.74,2.28-3.74,2.28v-1.99h-1.13v10.94h1.25v-7.56
		c0,0,0.96-2.45,3.38-2.45c1.78,0,3.1,0.96,3.1,3.22v6.79h1.25v-6.98C271.94,84.03,269.87,82.76,267.83,82.76 M250.22,78.34h8.06
		v-1.15h-9.31v16.8h9.46v-1.15h-8.21v-6.89h7.49V84.8h-7.49V78.34z M233.13,97.52l1.1,0.38l2.04-5.62l-1.15-0.41L233.13,97.52z
		 M225.07,82.76c-2.69,0-3.74,2.28-3.74,2.28v-1.99h-1.13v10.94h1.25v-7.56c0,0,0.96-2.45,3.38-2.45c1.78,0,3.1,0.96,3.1,3.22v6.79
		h1.25v-6.98C229.17,84.03,227.11,82.76,225.07,82.76 M210.64,93.05c-2.74,0-4.27-2.06-4.27-4.54s1.54-4.54,4.27-4.54
		c2.74,0,4.27,2.06,4.27,4.54S213.38,93.05,210.64,93.05 M210.64,82.76c-3.26,0-5.57,2.59-5.57,5.76s2.3,5.76,5.57,5.76
		c3.26,0,5.57-2.59,5.57-5.76S213.91,82.76,210.64,82.76 M199.19,79.49c0,0.53,0.43,0.96,0.96,0.96s0.96-0.43,0.96-0.96
		s-0.43-0.96-0.96-0.96S199.19,78.97,199.19,79.49 M199.53,93.99h1.25V83.05h-1.25V93.99z M187.65,84.2h2.38v6.84
		c0,1.8,0.98,3.24,3.12,3.24c1.1,0,2.16-0.65,2.16-0.65l-0.48-1.08c0,0-0.77,0.5-1.63,0.5c-1.49,0-1.92-1.03-1.92-2.26v-6.6h3.72
		v-1.15h-3.72v-3.53h-1.25v3.53h-2.38V84.2z M180.52,93.05c-2.62,0-4.34-2.11-4.34-4.54c0-2.42,1.73-4.54,4.34-4.54
		c2.3,0,3.48,1.63,3.48,1.63l0.89-0.79c0,0-1.51-2.06-4.37-2.06c-3.26,0-5.64,2.59-5.64,5.76s2.38,5.76,5.64,5.76
		c2.98,0,4.49-2.23,4.49-2.23l-0.86-0.82C184.15,91.23,182.95,93.05,180.52,93.05 M164.95,78.58l3.65,9.36h-7.3L164.95,78.58z
		 M157.56,93.99h1.34l1.92-4.9h8.26l1.92,4.9h1.34l-6.7-16.8h-1.39L157.56,93.99z M137.8,87.87c0.05-1.2,1.06-3.89,4.1-3.89
		c2.88,0,3.96,2.64,4.01,3.89H137.8z M141.91,82.76c-3.26,0-5.4,2.66-5.4,5.76c0,3.12,2.35,5.76,5.62,5.76
		c1.8,0,3.53-0.96,4.58-2.23l-0.84-0.86c-0.74,0.94-2.06,1.87-3.74,1.87c-2.9,0-4.27-2.38-4.37-4.03h9.43
		c0.02-0.26,0.02-0.29,0.02-0.5C147.21,85.16,144.81,82.76,141.91,82.76 M125.88,84.2h2.38v6.84c0,1.8,0.98,3.24,3.12,3.24
		c1.1,0,2.16-0.65,2.16-0.65l-0.48-1.08c0,0-0.77,0.5-1.63,0.5c-1.49,0-1.92-1.03-1.92-2.26v-6.6h3.72v-1.15h-3.72v-3.53h-1.25v3.53
		h-2.38V84.2z M117.04,93.05c-1.42,0-2.98-0.74-2.98-2.47c0-1.73,1.78-2.5,3.22-2.5c2.18,0,3.48,0.91,3.48,0.91v1.85
		C120.76,90.85,119.44,93.05,117.04,93.05 M117.52,82.76c-2.3,0-4.1,1.15-4.1,1.15l0.55,1.08c0,0,1.58-1.01,3.58-1.01
		c1.2,0,3.22,0.46,3.22,3.12v0.82c0,0-1.42-1.03-3.65-1.03c-2.14,0-4.34,1.3-4.34,3.7c0,2.42,2.14,3.7,3.98,3.7
		c2.69,0,4.13-2.18,4.13-2.18v1.9h1.13v-7.18C122.01,84.58,120.57,82.76,117.52,82.76 M101.64,86.09c0,0,0.84-2.11,2.9-2.11
		c1.66,0,2.66,0.96,2.66,3.19v6.82h1.25v-7.2c0-3.07-1.94-4.03-3.62-4.03c-2.42,0-3.43,1.99-3.5,2.14
		c-0.65-1.54-1.97-2.14-3.31-2.14c-2.45,0-3.41,2.14-3.41,2.14v-1.85h-1.13v10.94h1.25v-7.9c0,0,0.94-2.11,3-2.11
		c1.66,0,2.66,0.96,2.66,3.19v6.82h1.25V86.09z M86.66,79.49c0,0.53,0.43,0.96,0.96,0.96s0.96-0.43,0.96-0.96s-0.43-0.96-0.96-0.96
		S86.66,78.97,86.66,79.49 M87,93.99h1.25V83.05H87V93.99z M80.13,93.99h1.25V75.85h-1.2L80.13,93.99z M69.79,93.05
		c-4.18,0-7.01-3.34-7.01-7.46s2.83-7.46,7.01-7.46c2.09,0,3.86,0.82,5.09,2.16l0.89-0.82c-1.46-1.58-3.53-2.57-5.98-2.57
		c-4.85,0-8.3,3.84-8.3,8.69s3.46,8.69,8.3,8.69c2.54,0,4.75-1.08,6.22-2.78l-0.86-0.86C73.94,92.07,72.02,93.05,69.79,93.05"/>
	<path d="M276.67,62.5c-1.25,0-2.54-0.58-2.54-2.02c0-1.15,1.08-2.02,2.81-2.02c1.8,0,2.9,0.79,2.9,0.79v1.56
		C279.83,60.82,278.63,62.5,276.67,62.5 M277.03,52.61c-2.42,0-4.15,1.13-4.15,1.13l0.84,1.68c0,0,1.63-0.94,3.31-0.94
		c0.89,0,2.81,0.31,2.81,2.62v0.6c0,0-1.3-0.91-3.34-0.91c-2.5,0-4.39,1.54-4.39,3.7c0,2.4,2.14,3.79,4.13,3.79
		c2.52,0,3.77-1.9,3.77-1.9v1.61h1.85v-7.3C281.85,54.63,280.29,52.61,277.03,52.61 M265.39,49.35c0,0.74,0.62,1.37,1.37,1.37
		c0.74,0,1.37-0.62,1.37-1.37c0-0.74-0.62-1.37-1.37-1.37C266.01,47.98,265.39,48.61,265.39,49.35 M265.75,63.99h2.02V52.9h-2.02
		V63.99z M260.75,52.61c-2.11,0-3.1,1.99-3.1,1.99v-1.7h-1.87v11.09h2.02v-7.63c0,0,0.79-1.87,2.54-1.87c0.84,0,1.27,0.24,1.27,0.24
		l0.74-1.82C262.36,52.9,261.67,52.61,260.75,52.61 M244.36,54.73h2.16v6.07c0,2.45,1.75,3.48,3.34,3.48c0.65,0,1.34-0.14,2.3-0.67
		l-0.74-1.66c0,0-0.65,0.46-1.27,0.46c-1.08,0-1.61-0.62-1.61-1.7v-5.98h3.46V52.9h-3.46v-3.38h-2.02v3.38h-2.16V54.73z
		 M232.24,61.95c0,0,1.63,2.33,4.75,2.33c2.14,0,4.39-1.1,4.39-3.24c0-2.26-1.8-3.05-3.91-3.5c-1.82-0.38-2.69-0.84-2.69-1.68
		c0-0.72,0.7-1.42,2.11-1.42c1.68,0,2.78,1.22,2.78,1.22l1.32-1.37c0,0-1.49-1.68-4.1-1.68c-2.47,0-4.08,1.58-4.08,3.19
		c0,2.09,1.68,3.02,4.06,3.5c1.7,0.34,2.52,0.82,2.52,1.78c0,0.89-1.27,1.37-2.4,1.37c-2.18,0-3.36-1.8-3.36-1.8L232.24,61.95z
		 M223.17,64.28c2.4,0,3.41-1.99,3.41-1.99v1.7h1.87V52.9h-2.02v7.68c0,0-0.89,1.82-2.76,1.82c-1.49,0-2.66-0.82-2.66-2.71V52.9
		h-2.02v7.13C218.99,62.77,220.96,64.28,223.17,64.28 M208.34,50.07l2.88,7.46h-5.76L208.34,50.07z M200.8,63.99h2.16l1.75-4.54
		h7.25l1.75,4.54h2.11l-6.55-16.8h-1.87L200.8,63.99z M183.26,54.73h2.3v9.26h2.02v-9.26h2.88V52.9h-2.88v-3.7
		c0-1.08,0.6-1.78,1.68-1.78c0.62,0,1.3,0.43,1.3,0.43l0.74-1.66c-0.96-0.53-1.68-0.65-2.33-0.65c-1.58,0-3.41,1.18-3.41,3.53v3.82
		h-2.3V54.73z M174.86,62.41c-2.23,0-3.7-1.78-3.7-3.96s1.46-3.96,3.7-3.96c2.23,0,3.7,1.78,3.7,3.96S177.09,62.41,174.86,62.41
		 M174.86,52.61c-3.26,0-5.71,2.57-5.71,5.83s2.45,5.83,5.71,5.83c3.26,0,5.71-2.57,5.71-5.83S178.12,52.61,174.86,52.61
		 M157.05,60.82c0,0-1.08,1.58-3.24,1.58c-2.23,0-3.7-1.78-3.7-3.96s1.46-3.96,3.7-3.96c1.97,0,3.05,1.34,3.05,1.34l1.37-1.22
		c0,0-1.58-1.99-4.42-1.99c-3.26,0-5.71,2.59-5.71,5.83c0,3.26,2.45,5.83,5.71,5.83c2.93,0,4.54-2.14,4.54-2.14L157.05,60.82z
		 M141.62,49.35c0,0.74,0.62,1.37,1.37,1.37s1.37-0.62,1.37-1.37c0-0.74-0.62-1.37-1.37-1.37S141.62,48.61,141.62,49.35
		 M141.98,63.99H144V52.9h-2.02V63.99z M134.66,63.99h2.02V45.85h-2.02V63.99z M121.53,56.41c0,0,1.06-1.92,3.26-1.92
		s3.67,1.78,3.67,3.96s-1.42,3.96-3.67,3.96c-2.21,0-3.26-1.92-3.26-1.92V56.41z M125.11,52.61c-2.45,0-3.58,1.66-3.58,1.66v-8.42
		h-2.02v18.14h1.85v-1.61c0,0,1.08,1.9,3.74,1.9c3,0,5.38-2.57,5.38-5.83S128.11,52.61,125.11,52.61 M109.29,64.28
		c2.4,0,3.41-1.99,3.41-1.99v1.7h1.87V52.9h-2.02v7.68c0,0-0.89,1.82-2.76,1.82c-1.49,0-2.66-0.82-2.66-2.71V52.9h-2.02v7.13
		C105.12,62.77,107.08,64.28,109.29,64.28 M92.42,56.38c0,0,1.06-1.9,3.26-1.9c2.26,0,3.67,1.78,3.67,3.96s-1.42,3.96-3.67,3.96
		c-2.21,0-3.26-1.9-3.26-1.9V56.38z M90.4,52.9v16.61h2.02v-6.89c0.38,0.5,1.54,1.66,3.58,1.66c3,0,5.38-2.57,5.38-5.83
		S99,52.61,96,52.61c-2.64,0-3.74,1.9-3.74,1.9V52.9H90.4z M77.73,57.49c0.14-1.15,1.13-3,3.53-3c2.23,0,3.36,1.75,3.43,3H77.73z
		 M81.26,52.61c-3.34,0-5.54,2.59-5.54,5.83c0,3.29,2.42,5.83,5.78,5.83c2.93,0,4.61-2.18,4.61-2.18l-1.27-1.32
		c0,0-1.15,1.63-3.34,1.63c-2.09,0-3.7-1.56-3.82-3.24h8.95c0.02-0.26,0.02-0.43,0.02-0.65C86.66,54.94,84.36,52.61,81.26,52.61
		 M62.2,63.99h2.02v-6.86h1.56l4.54,6.86h2.42l-4.66-7.03c0.48-0.07,4.1-0.82,4.1-4.8c0-3-2.28-4.97-5.62-4.97H62.2V63.99z
		 M66.69,55.21h-2.47v-6.1h2.47c2.26,0,3.48,1.2,3.48,3.05S68.95,55.21,66.69,55.21"/>
	<path d="M237.67,39.01c0,0,0.98,0.79,2.35,0.79c1.18,0,2.42-0.62,3.07-2.23c0.26-0.65,5.83-14.66,5.83-14.66h-2.18l-3.31,8.76
		l-3.89-8.76h-2.28l5.18,11.14l-0.86,2.18c-0.43,1.08-0.84,1.7-1.73,1.7c-0.62,0-1.32-0.58-1.32-0.58L237.67,39.01z M233.92,22.61
		c-2.11,0-3.1,1.99-3.1,1.99v-1.7h-1.87v11.09h2.02v-7.63c0,0,0.79-1.87,2.54-1.87c0.84,0,1.27,0.24,1.27,0.24l0.74-1.82
		C235.53,22.9,234.83,22.61,233.92,22.61 M217.53,24.73h2.16v6.07c0,2.45,1.75,3.48,3.34,3.48c0.65,0,1.34-0.14,2.3-0.67l-0.74-1.66
		c0,0-0.65,0.46-1.27,0.46c-1.08,0-1.61-0.62-1.61-1.7v-5.98h3.46V22.9h-3.46v-3.38h-2.02v3.38h-2.16V24.73z M205.41,31.95
		c0,0,1.63,2.33,4.75,2.33c2.14,0,4.39-1.1,4.39-3.24c0-2.26-1.8-3.05-3.91-3.5c-1.82-0.38-2.69-0.84-2.69-1.68
		c0-0.72,0.7-1.42,2.11-1.42c1.68,0,2.78,1.22,2.78,1.22l1.32-1.37c0,0-1.49-1.68-4.1-1.68c-2.47,0-4.08,1.58-4.08,3.19
		c0,2.09,1.68,3.02,4.06,3.5c1.7,0.34,2.52,0.82,2.52,1.78c0,0.89-1.27,1.37-2.4,1.37c-2.18,0-3.36-1.8-3.36-1.8L205.41,31.95z
		 M198.88,19.35c0,0.74,0.62,1.37,1.37,1.37s1.37-0.62,1.37-1.37s-0.62-1.37-1.37-1.37S198.88,18.61,198.88,19.35 M199.24,33.99
		h2.02V22.9h-2.02V33.99z M190.2,22.61c-2.4,0-3.41,1.85-3.41,1.85V22.9h-1.87v11.09h2.02v-7.63c0,0,0.96-1.87,2.76-1.87
		c1.49,0,2.66,0.82,2.66,2.71v6.79h2.02v-7.13C194.37,24.13,192.4,22.61,190.2,22.61 M177.67,19.35c0,0.74,0.62,1.37,1.37,1.37
		c0.74,0,1.37-0.62,1.37-1.37s-0.62-1.37-1.37-1.37C178.29,17.98,177.67,18.61,177.67,19.35 M178.03,33.99h2.02V22.9h-2.02V33.99z
		 M157.22,17.19v16.8h2.02V20.86l5.74,9.31l5.74-9.34v13.15h2.02v-16.8h-1.94l-5.76,9.38l-5.78-9.38H157.22z M141.67,33.99h2.02
		V15.85h-2.02V33.99z M131.54,32.5c-1.25,0-2.54-0.58-2.54-2.02c0-1.15,1.08-2.02,2.81-2.02c1.8,0,2.9,0.79,2.9,0.79v1.56
		C134.71,30.82,133.51,32.5,131.54,32.5 M131.9,22.61c-2.42,0-4.15,1.13-4.15,1.13l0.84,1.68c0,0,1.63-0.94,3.31-0.94
		c0.89,0,2.81,0.31,2.81,2.62v0.6c0,0-1.3-0.91-3.34-0.91c-2.5,0-4.39,1.54-4.39,3.7c0,2.4,2.14,3.79,4.13,3.79
		c2.52,0,3.77-1.9,3.77-1.9v1.61h1.85v-7.3C136.72,24.63,135.16,22.61,131.9,22.61 M123.16,22.61c-2.11,0-3.1,1.99-3.1,1.99v-1.7
		h-1.87v11.09h2.02v-7.63c0,0,0.79-1.87,2.54-1.87c0.84,0,1.27,0.24,1.27,0.24l0.74-1.82C124.77,22.9,124.08,22.61,123.16,22.61
		 M105.52,27.49c0.14-1.15,1.13-3,3.53-3c2.23,0,3.36,1.75,3.43,3H105.52z M109.05,22.61c-3.34,0-5.54,2.59-5.54,5.83
		c0,3.29,2.42,5.83,5.78,5.83c2.93,0,4.61-2.18,4.61-2.18l-1.27-1.32c0,0-1.15,1.63-3.34,1.63c-2.09,0-3.7-1.56-3.82-3.24h8.95
		c0.02-0.26,0.02-0.43,0.02-0.65C114.45,24.94,112.15,22.61,109.05,22.61 M97.32,30.49c0,0-1.06,1.92-3.26,1.92
		c-2.26,0-3.67-1.78-3.67-3.96c0-2.18,1.46-3.96,3.67-3.96s3.26,1.92,3.26,1.92V30.49z M93.74,22.61c-3,0-5.38,2.57-5.38,5.83
		c0,3.26,2.38,5.83,5.38,5.83c2.66,0,3.74-1.9,3.74-1.9v1.61h1.85V15.85h-2.02v8.42C97.32,24.27,96.19,22.61,93.74,22.61
		 M76.46,27.49c0.14-1.15,1.13-3,3.53-3c2.23,0,3.36,1.75,3.43,3H76.46z M79.99,22.61c-3.34,0-5.54,2.59-5.54,5.83
		c0,3.29,2.42,5.83,5.78,5.83c2.93,0,4.61-2.18,4.61-2.18l-1.27-1.32c0,0-1.15,1.63-3.34,1.63c-2.09,0-3.7-1.56-3.82-3.24h8.95
		c0.02-0.26,0.02-0.43,0.02-0.65C85.39,24.94,83.08,22.61,79.99,22.61 M64.22,19.11h7.46v-1.92H62.2v16.8h2.02v-7.66h6.98v-1.92
		h-6.98V19.11z"/>
</g>
<polygon class="st0" points="43.23,22.68 43.23,17.01 17.01,17.01 19.65,22.68 "/>
<polygon class="st0" points="24.94,34.02 43.23,34.02 43.23,28.35 22.29,28.35 "/>
</svg>
