<?xml version="1.0" encoding="utf-8"?>
<!-- Generator: Adobe Illustrator 24.3.0, SVG Export Plug-In . SVG Version: 6.00 Build 0)  -->
<svg version="1.1" xmlns="http://www.w3.org/2000/svg" xmlns:xlink="http://www.w3.org/1999/xlink" x="0px" y="0px"
	 viewBox="0 0 566.93 441.76" style="enable-background:new 0 0 566.93 441.76;" xml:space="preserve">
<style type="text/css">
	.st0{fill:url(#SVGID_1_);}
	.st1{fill:#141215;}
</style>
<g id="Ebene_1">
	<linearGradient id="SVGID_1_" gradientUnits="userSpaceOnUse" x1="101.3689" y1="170.3291" x2="485.6833" y2="170.3291">
		<stop  offset="5.267311e-03" style="stop-color:#5B9299"/>
		<stop  offset="0.1421" style="stop-color:#628E92"/>
		<stop  offset="0.3381" style="stop-color:#758180"/>
		<stop  offset="0.5698" style="stop-color:#946D62"/>
		<stop  offset="0.8268" style="stop-color:#BE5038"/>
		<stop  offset="0.9974" style="stop-color:#DF3B18"/>
	</linearGradient>
	<path class="st0" d="M484.23,7.34c-3.36-6.61-11.47-9.24-18.07-5.88c-6.6,3.36-9.24,11.47-5.88,18.07
		c0.44,0.86,0.97,1.65,1.57,2.38L382.9,125.1l-36.58-28.18c-0.62-0.48-1.39-0.68-2.17-0.59c-0.77,0.1-1.47,0.5-1.95,1.12
		c-0.83,1.08-83.04,108.22-93.79,121.76c-10.77,13.55-18.72,15.94-31.45,15.94c-21.91,0-39.07-18.1-39.07-41.22
		c0-23.01,17.25-41.03,39.26-41.03c12.67,0,23.33,5.58,30.83,16.15c0.54,0.76,1.41,1.22,2.34,1.24c0.87-0.09,1.82-0.41,2.39-1.15
		l16.01-20.88c0.86-1.12,0.8-2.7-0.15-3.75c-13.19-14.66-32.28-23.07-52.38-23.07c-39.33,0-71.32,32.52-71.32,72.49
		c0,17.82,6.35,34.83,17.95,48.17l-60.83,78.75c-0.99,1.28-0.76,3.13,0.53,4.12l19.52,15.08c0.52,0.4,1.15,0.61,1.8,0.61
		c0.12,0,0.25-0.01,0.37-0.02c0.77-0.1,1.47-0.5,1.95-1.12l61.15-79.16c9.18,4.16,18.89,6.27,28.89,6.27
		c22.2,0,42.5-9.9,55.78-27.18c0.14-0.13,0.27-0.27,0.39-0.42c0.11-0.14,0.2-0.29,0.28-0.44l76.86-99.66l37.73,28.97
		c1.29,1,3.13,0.75,4.12-0.54l78.01-101.17L469.47,96l-77.24,100.67l-37.09-28.61c-0.61-0.48-1.39-0.69-2.17-0.59
		c-0.77,0.1-1.47,0.5-1.95,1.12l-59.94,77.7c-2.59-1.06-5.5-1.37-8.41-0.62c-3.48,0.89-6.4,3.09-8.22,6.18
		c-1.83,3.09-2.34,6.71-1.45,10.18c1.56,6.06,7.03,10.09,13.02,10.09c1.1,0,2.23-0.14,3.34-0.42c3.48-0.89,6.4-3.09,8.22-6.18
		c1.83-3.09,2.34-6.71,1.45-10.18c-0.57-2.2-1.7-4.1-3.14-5.67l57.99-75.17l37.09,28.61c0.62,0.48,1.4,0.7,2.17,0.59
		c0.77-0.1,1.48-0.5,1.95-1.12l79.65-103.8c0.4-0.52,0.61-1.15,0.61-1.8l-0.16-39.39c-0.01-1.26-0.81-2.37-2-2.77
		c-1.19-0.39-2.49-0.01-3.27,0.99l-81.44,105.63l-37.73-28.96c-1.29-0.99-3.12-0.74-4.12,0.54l-78.98,102.4
		c-0.01,0.01-0.02,0.02-0.03,0.03c-12.15,16.08-30.91,25.31-51.44,25.31c-9.89,0-19.47-2.25-28.47-6.69
		c-1.25-0.61-2.76-0.27-3.62,0.84l-60.8,78.71l-14.87-11.49l60.53-78.37c0.88-1.14,0.81-2.74-0.17-3.8
		c-11.64-12.51-18.05-28.85-18.05-46.02c0-36.74,29.36-66.62,65.45-66.62c17.61,0,34.36,7.02,46.35,19.35l-12.17,15.88
		c-8.41-10.03-20.07-15.51-33.21-15.51c-25.31,0-45.14,20.6-45.14,46.9c0,26.41,19.74,47.09,44.95,47.09
		c16.36,0,25.12-4.41,36.05-18.16c9.89-12.45,79.9-103.66,92.06-119.5l36.58,28.18c0.62,0.48,1.39,0.69,2.17,0.59
		c0.77-0.1,1.47-0.5,1.95-1.12l80.7-105.5c0.53,0.25,1.05,0.52,1.61,0.7c1.37,0.44,2.78,0.67,4.18,0.67c2.09,0,4.16-0.49,6.08-1.47
		C484.94,22.05,487.58,13.95,484.23,7.34z M286.01,266.41c-4.23,0-7.65-3.43-7.65-7.65c0-4.23,3.43-7.65,7.65-7.65
		c4.23,0,7.65,3.43,7.65,7.65C293.66,262.98,290.23,266.41,286.01,266.41z M479.44,15.78c-0.63,1.92-1.96,3.48-3.76,4.4
		c-1.8,0.92-3.85,1.08-5.77,0.45c-1.92-0.63-3.48-1.96-4.4-3.76c-1.89-3.72-0.41-8.28,3.31-10.17c1.1-0.56,2.27-0.82,3.42-0.82
		c2.76,0,5.42,1.51,6.75,4.13C479.91,11.81,480.07,13.86,479.44,15.78z"/>
	<g>
		<path class="st1" d="M0,400.97c0-22.17,17.71-40.68,40-40.68c13.37,0,25.02,6.4,32.11,16.34l-12.11,8.8
			c-4.46-6.29-11.08-10.17-19.43-10.17c-14.28,0-24.68,11.66-24.68,25.71c0,14.06,10.28,25.83,24.57,25.83
			c8.46,0,15.09-3.89,19.54-10.17l12.11,8.8c-7.08,9.94-18.74,16.34-32.11,16.34C17.71,441.76,0,423.37,0,400.97z"/>
		<path class="st1" d="M78.98,401.08c0-22.4,17.6-40.8,40-40.8c22.28,0,40.11,18.4,40.11,40.8c0,22.28-17.82,40.68-40.11,40.68
			C96.58,441.76,78.98,423.37,78.98,401.08z M143.09,401.08c0-14.17-10.05-25.83-24.11-25.83c-14.17,0-24.11,11.66-24.11,25.83
			s9.94,25.71,24.11,25.71C133.04,426.79,143.09,415.25,143.09,401.08z"/>
		<path class="st1" d="M168.71,401.08c0-22.4,17.6-40.8,40.22-40.8c11.89,0,22.28,4.91,29.14,12.57l-11.54,9.94
			c-4.46-4.8-10.74-7.77-17.6-7.77c-13.71,0-24.34,11.99-24.34,26.05s10.4,26.4,24.8,26.4c10.28,0,20.45-6.17,20.45-15.31h-22.28
			v-12.91h39.65c0,29.14-16.11,42.51-37.48,42.51C185.97,441.76,168.71,423.37,168.71,401.08z"/>
		<path class="st1" d="M303.01,361.66h15.88v78.73h-14.28l-28.57-49.36v49.36h-15.88v-78.73h14.74l28.11,48.79V361.66z"/>
		<path class="st1" d="M338.11,440.39v-78.73h15.88v78.73H338.11z"/>
		<path class="st1" d="M425.19,361.66v14.06h-21.71v64.68H387.6v-64.68h-21.71v-14.06H425.19z"/>
		<path class="st1" d="M436.3,412.63v-50.97h15.88v49.94c0,10.74,6.86,15.08,14.17,15.08c7.43,0,14.28-4.34,14.28-15.08v-49.94
			h15.88v50.97c0,18.05-14.06,29.14-30.17,29.14C450.35,441.76,436.3,430.68,436.3,412.63z"/>
		<path class="st1" d="M510.36,417.54h15.88c0.12,5.6,5.6,10.28,12.91,10.28c7.08,0,11.77-3.89,11.77-9.49
			c0-4.34-3.2-7.42-9.94-9.48l-9.6-2.75c-17.26-4.56-20.34-14.97-20.34-22.05c0-14.06,12.11-23.77,27.19-23.77
			c14.86,0,26.28,9.03,26.28,24h-15.88c0-5.6-3.89-9.94-10.74-9.94c-6.17,0-10.85,4.11-10.85,9.37c0,1.94,0.57,5.94,8.8,8.34
			l8.8,2.52c11.88,3.54,22.28,9.6,22.28,22.97c0,15.65-13.37,24.22-28.23,24.22C521.9,441.76,510.36,431.37,510.36,417.54z"/>
	</g>
</g>
<g id="Ebene_2">
</g>
</svg>
