<?xml version="1.0" encoding="utf-8"?>
<!-- Generator: Adobe Illustrator 24.3.0, SVG Export Plug-In . SVG Version: 6.00 Build 0)  -->
<svg version="1.1" xmlns="http://www.w3.org/2000/svg" xmlns:xlink="http://www.w3.org/1999/xlink" x="0px" y="0px"
	 viewBox="0 0 379.7 336.57" style="enable-background:new 0 0 379.7 336.57;" xml:space="preserve">
<g id="Ebene_1">
</g>
<g id="Ebene_2">
	<path d="M378.26,7.25c-3.32-6.53-11.34-9.13-17.85-5.81c-6.53,3.32-9.13,11.33-5.81,17.85c0.43,0.85,0.96,1.63,1.55,2.35
		L278.16,123.6l-36.14-27.84c-0.61-0.47-1.37-0.67-2.15-0.58c-0.76,0.1-1.46,0.5-1.92,1.11c-0.82,1.07-82.04,106.92-92.67,120.3
		c-10.64,13.39-18.5,15.74-31.07,15.74c-21.65,0-38.6-17.89-38.6-40.72c0-22.73,17.04-40.54,38.79-40.54
		c12.51,0,23.05,5.52,30.46,15.96c0.53,0.75,1.39,1.2,2.31,1.22c0.86-0.09,1.8-0.41,2.36-1.14l15.82-20.63
		c0.85-1.11,0.79-2.67-0.15-3.71c-13.03-14.49-31.89-22.79-51.75-22.79c-38.86,0-70.47,32.13-70.47,71.62
		c0,17.61,6.28,34.41,17.73,47.59L0.61,317c-0.98,1.27-0.75,3.09,0.52,4.07l19.28,14.89c0.51,0.4,1.14,0.61,1.77,0.61
		c0.12,0,0.25-0.01,0.37-0.02c0.76-0.1,1.46-0.5,1.93-1.11l60.42-78.21c9.07,4.11,18.66,6.19,28.55,6.19
		c21.94,0,41.99-9.78,55.11-26.85c0.14-0.12,0.27-0.26,0.38-0.42c0.11-0.14,0.2-0.29,0.27-0.44l75.94-98.47l37.27,28.62
		c1.27,0.98,3.09,0.74,4.07-0.53l77.07-99.95l0.12,29.46l-76.32,99.46l-36.64-28.26c-0.61-0.47-1.37-0.69-2.14-0.58
		c-0.76,0.1-1.46,0.5-1.93,1.11l-59.22,76.77c-2.56-1.05-5.44-1.36-8.3-0.61c-3.43,0.88-6.32,3.05-8.12,6.11
		c-1.8,3.05-2.31,6.63-1.43,10.06c1.54,5.98,6.95,9.97,12.86,9.97c1.09,0,2.2-0.14,3.3-0.42c3.43-0.88,6.32-3.05,8.12-6.11
		c1.8-3.05,2.31-6.63,1.43-10.06c-0.56-2.18-1.68-4.05-3.1-5.6l57.3-74.27l36.64,28.27c0.61,0.47,1.39,0.69,2.14,0.58
		c0.77-0.1,1.46-0.5,1.93-1.11l78.69-102.55c0.39-0.51,0.6-1.13,0.6-1.78l-0.16-38.91c-0.01-1.24-0.8-2.34-1.97-2.74
		c-1.17-0.39-2.46-0.01-3.23,0.98L283.66,159.5l-37.27-28.62c-1.27-0.98-3.09-0.73-4.07,0.53l-78.03,101.17
		c-0.01,0.01-0.02,0.02-0.03,0.03c-12.01,15.89-30.53,25-50.83,25c-9.77,0-19.24-2.22-28.13-6.61c-1.23-0.61-2.73-0.27-3.58,0.83
		L21.66,329.6L6.97,318.25l59.81-77.43c0.87-1.12,0.8-2.71-0.17-3.75c-11.5-12.36-17.83-28.5-17.83-45.47
		c0-36.29,29.01-65.82,64.66-65.82c17.39,0,33.95,6.94,45.79,19.12l-12.02,15.69c-8.31-9.91-19.83-15.32-32.81-15.32
		c-25.01,0-44.59,20.35-44.59,46.34c0,26.09,19.5,46.53,44.41,46.53c16.16,0,24.82-4.36,35.61-17.94
		c9.77-12.3,78.94-102.41,90.96-118.07l36.14,27.84c0.61,0.47,1.37,0.68,2.15,0.58c0.76-0.1,1.46-0.5,1.92-1.11L360.72,25.2
		c0.52,0.25,1.03,0.51,1.59,0.7c1.35,0.44,2.74,0.66,4.13,0.66c2.06,0,4.11-0.48,6-1.45C378.97,21.79,381.58,13.78,378.26,7.25z
		 M182.42,263.21c-4.18,0-7.56-3.39-7.56-7.56c0-4.18,3.39-7.56,7.56-7.56s7.56,3.39,7.56,7.56
		C189.98,259.82,186.6,263.21,182.42,263.21z M373.53,15.59c-0.62,1.9-1.94,3.44-3.72,4.35c-1.78,0.91-3.81,1.07-5.7,0.44
		c-1.9-0.62-3.44-1.94-4.34-3.71c-1.87-3.67-0.4-8.18,3.27-10.05c1.08-0.55,2.24-0.81,3.38-0.81c2.73,0,5.35,1.49,6.67,4.08
		C373.99,11.67,374.15,13.69,373.53,15.59z"/>
</g>
</svg>
